# xmcd CD database file
#
# Track frame offsets:
#	150
#	15240
#	30600
#	50205
#	66780
#	82335
#	96829
#	109939
#	121549
#	131629
#	147057
#	160726
#
# Disc length: 2375 seconds
#
# Revision: 0
# Processed by: cddbd v1.5.2PL0 Copyright (c) Steve Scherf et al.
# Submitted via: CDex 1.70beta2
#
DISCID=9c09450c
DTITLE=Gustav Peter Wöhler and Kim Fischer - Liebe Stärke Mitgefühl
DYEAR=2006
DGENRE=Blues
TTITLE0=She's always a woman
TTITLE1=Be my number two
TTITLE2=From the morning
TTITLE3=In Germany before the war
TTITLE4=Norwegian wood
TTITLE5=Sag mal weinst du
TTITLE6=Cello
TTITLE7=Teaxas girl at the funeral of her father
TTITLE8=Short people
TTITLE9=Dimming of the day
TTITLE10=Girl
TTITLE11=Nothing compares to you
EXTD=YEAR: 2006
EXTT0=
EXTT1=
EXTT2=
EXTT3=
EXTT4=
EXTT5=
EXTT6=
EXTT7=
EXTT8=
EXTT9=
EXTT10=
EXTT11=
PLAYORDER=
